name Walk2.mot
datacolumns 19
datarows 22
range 3.62400000 3.64500000
endheader

                time	   L_ground_force_vx	   L_ground_force_vy	   L_ground_force_vz	   L_ground_force_px	   L_ground_force_py	   L_ground_force_pz	   R_ground_force_vx	   R_ground_force_vy	   R_ground_force_vz	   R_ground_force_px	   R_ground_force_py	   R_ground_force_pz	   L_ground_torque_x	   L_ground_torque_y	   L_ground_torque_z	   R_ground_torque_x	   R_ground_torque_y	   R_ground_torque_z	
          3.62400000	          0.00000000	          0.00000000	          0.00000000	          0.00000000	          0.00000000	          0.00000000	         26.23921605	        974.81612430	         66.44237971	         -0.20932625	          0.00000000	         -0.04499873	          0.00000000	          0.00000000	          0.00000000	          0.00000000	         -1.39252860	          0.00000000	
          3.62500000	          0.00000000	          0.00000000	          0.00000000	          0.00000000	          0.00000000	          0.00000000	         26.43738909	        975.64362265	         66.58192016	         -0.20893820	          0.00000000	         -0.04503718	          0.00000000	          0.00000000	          0.00000000	          0.00000000	         -1.36375881	          0.00000000	
          3.62600000	          0.00000000	          0.00000000	          0.00000000	          0.00000000	          0.00000000	          0.00000000	         26.62867301	        976.46304547	         66.72100134	         -0.20854754	          0.00000000	         -0.04509104	          0.00000000	          0.00000000	          0.00000000	          0.00000000	         -1.34268709	          0.00000000	
          3.62700000	          0.00000000	          0.00000000	          0.00000000	          0.00000000	          0.00000000	          0.00000000	         26.81732536	        977.28235475	         66.86284223	         -0.20814772	          0.00000000	         -0.04515315	          0.00000000	          0.00000000	          0.00000000	          0.00000000	         -1.32646928	          0.00000000	
          3.62800000	          0.00000000	          0.00000000	          0.00000000	          0.00000000	          0.00000000	          0.00000000	         26.99379659	        978.11008590	         67.00898482	         -0.20773519	          0.00000000	         -0.04521879	          0.00000000	          0.00000000	          0.00000000	          0.00000000	         -1.31376235	          0.00000000	
          3.62900000	          0.00000000	          0.00000000	          0.00000000	          0.00000000	          0.00000000	          0.00000000	         27.14718284	        978.95388996	         67.15791390	         -0.20731164	          0.00000000	         -0.04527406	          0.00000000	          0.00000000	          0.00000000	          0.00000000	         -1.30658863	          0.00000000	
          3.63000000	          0.00000000	          0.00000000	          0.00000000	          0.00000000	          0.00000000	          0.00000000	         27.28402649	        979.80198212	         67.30498231	         -0.20688084	          0.00000000	         -0.04529510	          0.00000000	          0.00000000	          0.00000000	          0.00000000	         -1.30610098	          0.00000000	
          3.63100000	          0.00000000	          0.00000000	          0.00000000	          0.00000000	          0.00000000	          0.00000000	         27.42562177	        980.62874420	         67.44167220	         -0.20644541	          0.00000000	         -0.04526834	          0.00000000	          0.00000000	          0.00000000	          0.00000000	         -1.30979092	          0.00000000	
          3.63200000	          0.00000000	          0.00000000	          0.00000000	          0.00000000	          0.00000000	          0.00000000	         27.58925630	        981.43042058	         67.55821641	         -0.20600807	          0.00000000	         -0.04521293	          0.00000000	          0.00000000	          0.00000000	          0.00000000	         -1.31584503	          0.00000000	
          3.63300000	          0.00000000	          0.00000000	          0.00000000	          0.00000000	          0.00000000	          0.00000000	         27.77440826	        982.22778804	         67.65264547	         -0.20556916	          0.00000000	         -0.04516792	          0.00000000	          0.00000000	          0.00000000	          0.00000000	         -1.32508855	          0.00000000	
          3.63400000	          0.00000000	          0.00000000	          0.00000000	          0.00000000	          0.00000000	          0.00000000	         27.96702804	        983.03274182	         67.73417839	         -0.20512322	          0.00000000	         -0.04515152	          0.00000000	          0.00000000	          0.00000000	          0.00000000	         -1.33540033	          0.00000000	
          3.63500000	          0.00000000	          0.00000000	          0.00000000	          0.00000000	          0.00000000	          0.00000000	         28.15481843	        983.84082624	         67.81607194	         -0.20466408	          0.00000000	         -0.04515232	          0.00000000	          0.00000000	          0.00000000	          0.00000000	         -1.33951983	          0.00000000	
          3.63600000	          0.00000000	          0.00000000	          0.00000000	          0.00000000	          0.00000000	          0.00000000	         28.33469613	        984.64042769	         67.90680011	         -0.20418971	          0.00000000	         -0.04515668	          0.00000000	          0.00000000	          0.00000000	          0.00000000	         -1.33039783	          0.00000000	
          3.63700000	          0.00000000	          0.00000000	          0.00000000	          0.00000000	          0.00000000	          0.00000000	         28.50850549	        985.42030347	         68.00383438	         -0.20370326	          0.00000000	         -0.04515532	          0.00000000	          0.00000000	          0.00000000	          0.00000000	         -1.30804090	          0.00000000	
          3.63800000	          0.00000000	          0.00000000	          0.00000000	          0.00000000	          0.00000000	          0.00000000	         28.67878658	        986.18816113	         68.09625482	         -0.20321534	          0.00000000	         -0.04513582	          0.00000000	          0.00000000	          0.00000000	          0.00000000	         -1.28100252	          0.00000000	
          3.63900000	          0.00000000	          0.00000000	          0.00000000	          0.00000000	          0.00000000	          0.00000000	         28.84827206	        986.96315896	         68.17416527	         -0.20274030	          0.00000000	         -0.04510098	          0.00000000	          0.00000000	          0.00000000	          0.00000000	         -1.25891196	          0.00000000	
          3.64000000	          0.00000000	          0.00000000	          0.00000000	          0.00000000	          0.00000000	          0.00000000	         29.01590919	        987.73639772	         68.23569193	         -0.20228618	          0.00000000	         -0.04508159	          0.00000000	          0.00000000	          0.00000000	          0.00000000	         -1.24425549	          0.00000000	
          3.64100000	          0.00000000	          0.00000000	          0.00000000	          0.00000000	          0.00000000	          0.00000000	         29.17607595	        988.46574180	         68.29134810	         -0.20184829	          0.00000000	         -0.04510891	          0.00000000	          0.00000000	          0.00000000	          0.00000000	         -1.23405970	          0.00000000	
          3.64200000	          0.00000000	          0.00000000	          0.00000000	          0.00000000	          0.00000000	          0.00000000	         29.32441980	        989.12181490	         68.35898354	         -0.20141263	          0.00000000	         -0.04518060	          0.00000000	          0.00000000	          0.00000000	          0.00000000	         -1.22726240	          0.00000000	
          3.64300000	          0.00000000	          0.00000000	          0.00000000	          0.00000000	          0.00000000	          0.00000000	         29.46127520	        989.72666794	         68.44970361	         -0.20096830	          0.00000000	         -0.04525836	          0.00000000	          0.00000000	          0.00000000	          0.00000000	         -1.22672775	          0.00000000	
          3.64400000	          0.00000000	          0.00000000	          0.00000000	          0.00000000	          0.00000000	          0.00000000	         29.59629954	        990.33372841	         68.56213809	         -0.20051637	          0.00000000	         -0.04529237	          0.00000000	          0.00000000	          0.00000000	          0.00000000	         -1.23630789	          0.00000000	
          3.64500000	          0.00000000	          0.00000000	          0.00000000	          0.00000000	          0.00000000	          0.00000000	         29.74841937	        990.97915770	         68.68540023	         -0.20006221	          0.00000000	         -0.04525302	          0.00000000	          0.00000000	          0.00000000	          0.00000000	         -1.25759838	          0.00000000	
